<svg viewBox="0 0 48 48" id="icon-youtube" xmlns="http://www.w3.org/2000/svg">
<path fill="white" d="M45.024 13.095c.939 3.548.903 10.943.903 10.943s0 7.358-.903 10.906c-.506 1.942-1.987 3.473-3.865 3.996-3.432.934-17.159.934-17.159.934s-13.691 0-17.159-.971c-1.878-.523-3.359-2.054-3.865-3.996-.903-3.511-.903-10.906-.903-10.906s0-7.358.903-10.906c.506-1.942 2.023-3.511 3.865-4.034C10.273 8.127 24 8.127 24 8.127s13.727 0 17.159.971c1.878.523 3.359 2.054 3.865 3.996zM19.63 30.798l11.415-6.797-11.415-6.797v13.595z"></path>
</svg>
