<svg viewBox="0 0 48 48" xmlns="http://www.w3.org/2000/svg">
<path fill="white" d="M8.817 34.11c-1.477 0-2.733.53-3.767 1.588-1.032 1.059-1.549 2.343-1.549 3.855s.516 2.797 1.549 3.855c1.034 1.059 2.29 1.589 3.767 1.589s2.731-.53 3.764-1.589c1.033-1.058 1.549-2.343 1.549-3.855s-.516-2.796-1.549-3.855c-1.034-1.059-2.288-1.588-3.764-1.588zm12.946-7.822c2.189 2.223 3.931 4.771 5.227 7.643s2.07 5.882 2.32 9.028a1.816 1.816 0 01-.49 1.417c-.347.414-.798.621-1.355.621h-3.888c-.48 0-.893-.163-1.24-.488a1.81 1.81 0 01-.575-1.224c-.423-4.506-2.194-8.356-5.315-11.554-3.121-3.196-6.88-5.01-11.277-5.443a1.731 1.731 0 01-1.196-.591 1.84 1.84 0 01-.475-1.268v-3.984c0-.571.202-1.033.604-1.386.326-.334.741-.502 1.24-.502h.143a25.372 25.372 0 018.815 2.377 25.431 25.431 0 017.461 5.355zm19.24 1.753a42.203 42.203 0 013.494 14.957c.038.536-.136 1.004-.524 1.401a1.702 1.702 0 01-1.34.597h-4.164a1.8 1.8 0 01-1.295-.522 1.808 1.808 0 01-.569-1.267c-.232-4.276-1.212-8.337-2.94-12.185-1.727-3.846-3.973-7.187-6.739-10.021-2.768-2.833-6.028-5.135-9.785-6.905a32.36 32.36 0 00-11.894-3.042c-.485-.02-.897-.213-1.237-.581s-.51-.801-.51-1.298V4.91c0-.556.194-1.014.583-1.373a1.723 1.723 0 011.281-.536h.087A39.645 39.645 0 0120.054 6.58c4.649 2.129 8.777 5.051 12.39 8.769a41.81 41.81 0 018.559 12.69z"></path>
</svg>
