<svg viewBox="0 0 510 510" xmlns="http://www.w3.org/2000/svg">
<defs><style>.ckcls-1{fill:#fff}.ckcls-2{fill:#41535d}</style></defs><path class="ckcls-1" d="M463.56 1H48.44A47.58 47.58 0 001 48.44v415.12A47.58 47.58 0 0048.44 511h210V330.13h-63.58v-73.84h63.62V201.9c0-63.11 38.67-97.54 95-97.54 26.94 0 50.14 2 56.88 3v65.87h-39.12c-30.68 0-36.42 14.72-36.42 35.92v47.15h73.09l-9.73 73.84h-63.36V511h128.74A47.58 47.58 0 00511 463.56V48.44A47.58 47.58 0 00463.56 1z" transform="translate(-1 -1)"></path><path class="ckcls-2" d="M398.18 330.13l9.73-73.84h-73.09v-47.15c0-21.2 5.74-35.92 36.42-35.92h39.17v-65.87c-6.74-1-29.94-3-56.88-3-56.38 0-95 34.43-95 97.54v54.39h-63.67v73.84h63.62V511h76.34V330.13z" transform="translate(-1 -1)"></path>
</svg>
